<svg width="1440" height="253" viewBox="0 0 1440 253" fill="none" xmlns="http://www.w3.org/2000/svg">
<mask id="mask0_570_1765" style="mask-type:alpha" maskUnits="userSpaceOnUse" x="0" y="0" width="1440" height="302">
<rect width="1440" height="302" fill="#D9D9D9"/>
</mask>
<g mask="url(#mask0_570_1765)">
<path d="M1880 68.0002L1839.22 50.472C1798.43 32.6148 1717.24 -1.94771 1634.92 15.3335C1553.54 32.6147 1472.16 103.385 1389.84 142.639C1308.46 182.385 1227.08 190.615 1144.76 164.528C1063.57 137.948 982 77.0522 899.683 68.0001C818.676 58.948 736.921 103.385 654.604 125.028C573.784 147 491.842 147 411.396 129.472C328.892 111.615 246.763 77.0521 166.317 68C84.0001 58.9479 1.6834 77.0521 -78.7624 103.138C-160.892 129.719 -243.396 164.281 -323.842 177.695C-405.784 190.614 -486.604 182.385 -568.921 147C-650.676 111.614 -731.683 50.7187 -772.842 19.6948L-814 -11L-814 226L-773.216 226C-732.431 226 -651.237 226 -568.921 226C-487.54 226 -406.158 226 -323.842 226C-242.46 226 -161.079 226 -78.7624 226C2.43173 226 84.0001 226 166.317 226C247.324 226 329.079 226 411.396 226C492.216 226 574.158 226 654.604 226C737.108 226 819.238 226 899.683 226C982 226 1064.32 226 1144.76 226C1226.89 226 1309.4 226 1389.84 226C1471.78 226 1552.6 226 1634.92 226C1716.68 226 1797.68 226 1838.84 226L1880 226L1880 68.0002Z" fill="#5A6DFE" fill-opacity="0.24"/>
<path d="M2255 95.0002L2214.75 77.472C2174.49 59.6148 2094.35 25.0523 2013.1 42.3335C1932.78 59.6147 1852.46 130.385 1771.21 169.639C1690.89 209.385 1610.56 217.615 1529.31 191.528C1449.18 164.948 1368.67 104.052 1287.42 95.0001C1207.46 85.948 1126.77 130.385 1045.52 152.028C965.754 174 884.876 174 805.476 156.472C724.044 138.615 642.981 104.052 563.581 95C482.333 85.9479 401.086 104.052 321.685 130.138C240.623 156.719 159.191 191.281 79.7902 204.695C-1.08768 217.614 -80.8577 209.385 -162.105 174C-242.798 138.614 -322.753 77.7187 -363.376 46.6948L-404 16L-404 253L-363.746 253C-323.491 253 -243.352 253 -162.105 253C-81.7809 253 -1.45699 253 79.7902 253C160.114 253 240.438 253 321.685 253C401.825 253 482.333 253 563.581 253C643.535 253 724.228 253 805.476 253C885.246 253 966.124 253 1045.52 253C1126.96 253 1208.02 253 1287.42 253C1368.67 253 1449.91 253 1529.31 253C1610.38 253 1691.81 253 1771.21 253C1852.09 253 1931.86 253 2013.1 253C2093.8 253 2173.75 253 2214.38 253L2255 253L2255 95.0002Z" fill="#5A6DFE" fill-opacity="0.24"/>
<path d="M2056 103L2012.98 86.3595C1969.95 69.4064 1884.3 36.594 1797.46 53.0002C1711.6 69.4064 1625.75 136.594 1538.91 173.859C1453.06 211.594 1367.21 219.406 1280.37 194.641C1194.72 169.406 1108.67 111.594 1021.83 103C936.37 94.4063 850.124 136.594 763.285 157.141C678.025 178 591.581 178 506.715 161.359C419.679 144.406 333.038 111.594 248.172 103C161.333 94.4063 74.4945 111.594 -10.3708 136.359C-97.0124 161.594 -184.049 194.406 -268.914 207.14C-355.358 219.406 -440.618 211.594 -527.457 178C-613.704 144.406 -699.161 86.5937 -742.581 57.1406L-786 28L-786 253L-742.975 253C-699.95 253 -614.296 253 -527.457 253C-441.605 253 -355.753 253 -268.914 253C-183.062 253 -97.2097 253 -10.3708 253C75.2839 253 161.333 253 248.172 253C333.63 253 419.876 253 506.715 253C591.975 253 678.419 253 763.285 253C850.321 253 936.962 253 1021.83 253C1108.67 253 1195.51 253 1280.37 253C1367.01 253 1454.05 253 1538.91 253C1625.36 253 1710.62 253 1797.46 253C1883.7 253 1969.16 253 2012.58 253L2056 253L2056 103Z" fill="white"/>
</g>
</svg>
